<mxfile host="app.diagrams.net" modified="2024-06-06T00:02:43.811Z" agent="Mozilla/5.0 (Windows NT 10.0; Win64; x64) AppleWebKit/537.36 (KHTML, like Gecko) Chrome/123.0.0.0 Safari/537.36 OPR/109.0.0.0" version="24.3.1" etag="wZyXO659_l9dtS7Klrq1" type="github">
  <diagram name="PÃ¡gina-1" id="U0ID1C0Kuz61m3Qeio4K">
    <mxGraphModel>
      <root>
        <mxCell id="0" />
        <mxCell id="1" parent="0" />
      </root>
    </mxGraphModel>
  </diagram>
</mxfile>
